<?xml version="1.0" encoding="UTF-8" standalone="no"?>
<!-- Created with Inkscape (http://www.inkscape.org/) -->

<svg
   xmlns:dc="http://purl.org/dc/elements/1.1/"
   xmlns:cc="http://creativecommons.org/ns#"
   xmlns:rdf="http://www.w3.org/1999/02/22-rdf-syntax-ns#"
   xmlns:svg="http://www.w3.org/2000/svg"
   xmlns="http://www.w3.org/2000/svg"
   xmlns:sodipodi="http://sodipodi.sourceforge.net/DTD/sodipodi-0.dtd"
   xmlns:inkscape="http://www.inkscape.org/namespaces/inkscape"
   version="1.1"
   id="svg2"
   xml:space="preserve"
   width="83.823997"
   height="40.881332"
   viewBox="0 0 83.823997 40.881332"
   sodipodi:docname="1C.svg"
   inkscape:version="0.92.1 r15371"><metadata
     id="metadata8"><rdf:RDF><cc:Work
         rdf:about=""><dc:format>image/svg+xml</dc:format><dc:type
           rdf:resource="http://purl.org/dc/dcmitype/StillImage" /><dc:title></dc:title></cc:Work></rdf:RDF></metadata><defs
     id="defs6"><clipPath
       clipPathUnits="userSpaceOnUse"
       id="clipPath18"><path
         d="M 0,0 H 595.276 V 595.276 H 0 Z"
         id="path16"
         inkscape:connector-curvature="0" /></clipPath></defs><sodipodi:namedview
     pagecolor="#ffffff"
     bordercolor="#666666"
     borderopacity="1"
     objecttolerance="10"
     gridtolerance="10"
     guidetolerance="10"
     inkscape:pageopacity="0"
     inkscape:pageshadow="2"
     inkscape:window-width="1920"
     inkscape:window-height="1017"
     id="namedview4"
     showgrid="false"
     fit-margin-top="0"
     fit-margin-left="0"
     fit-margin-right="0"
     fit-margin-bottom="0"
     inkscape:zoom="4.7574569"
     inkscape:cx="43.281337"
     inkscape:cy="15.637072"
     inkscape:window-x="-8"
     inkscape:window-y="-8"
     inkscape:window-maximized="1"
     inkscape:current-layer="g10" /><g
     id="g10"
     inkscape:groupmode="layer"
     inkscape:label="A9Rdfpkp1_1g2j1kf_6i8"
     transform="matrix(1.3333333,0,0,-1.3333333,-352.24959,699.21278)"><g
       id="g12"><g
         id="g14"
         clip-path="url(#clipPath18)"><g
           id="g20"
           transform="translate(296.8092,497.8276)"><path
             d="m 0,0 c -1.215,0.081 -2.616,0.294 -3.721,0.614 -0.207,0.06 -1.064,0.375 -1.282,0.475 -3.847,1.782 -6.527,5.672 -6.527,10.185 0,6.19 5.036,11.232 11.23,11.232 6.139,0 11.141,-4.956 11.227,-11.076 h 4.057 C 14.898,19.786 8.077,26.558 -0.3,26.558 c -8.427,0 -15.286,-6.855 -15.286,-15.284 0,-5.811 3.268,-10.865 8.053,-13.447 0.864,-0.457 2.104,-0.928 2.525,-1.057 1.364,-0.406 3.038,-0.676 4.528,-0.789 0.506,-0.038 2.273,-0.058 2.788,-0.06 h 27.938 v 4.041 H 2.355 C 1.984,-0.038 0.363,-0.024 0,0 m 2.355,6.345 v 0 c -0.295,0 -1.838,0.01 -2.123,0.034 -0.483,0.041 -1.183,0.113 -1.633,0.216 -0.508,0.136 -0.985,0.316 -1.2,0.434 -1.507,0.815 -2.534,2.409 -2.534,4.245 0,2.671 2.163,4.837 4.835,4.837 2.616,0 4.743,-2.081 4.828,-4.681 h 3.898 c -0.082,4.75 -3.954,8.578 -8.726,8.578 -4.825,0 -8.736,-3.91 -8.736,-8.734 0,-3.402 1.95,-6.34 4.79,-7.779 C -3.809,3.239 -2.987,2.971 -2.753,2.91 -1.951,2.699 -0.874,2.555 0,2.491 0.323,2.464 1.905,2.452 2.239,2.45 V 2.444 H 30.245 V 6.345 Z M -18.086,-4.064 h -4.084 v 26.561 h -5.968 v 4.085 h 10.052 z m -14.536,24.52 v -3.928 h 4.484 V -4.064 h 3.924 v 24.52 z"
             style="fill:#d91920;fill-opacity:1;fill-rule:nonzero;stroke:none"
             id="path22"
             inkscape:connector-curvature="0" /></g><g
           id="g24"
           transform="translate(319.8388,524.1243)"><path
             d="m 0,0 c -1.471,0 -2.691,-1.173 -2.691,-2.645 0,-1.472 1.22,-2.692 2.691,-2.692 1.516,0 2.689,1.22 2.689,2.692 C 2.689,-1.173 1.516,0 0,0 m 0,-4.903 c -1.215,0 -2.262,0.955 -2.262,2.258 0,1.237 1.047,2.216 2.262,2.216 1.214,0 2.256,-0.979 2.256,-2.216 0,-1.303 -1.042,-2.258 -2.256,-2.258"
             style="fill:#d91920;fill-opacity:1;fill-rule:nonzero;stroke:none"
             id="path26"
             inkscape:connector-curvature="0" /></g><g
           id="g28"
           transform="translate(320.8634,520.7545)"><path
             d="m 0,0 c 0,0.297 -0.044,0.573 -0.384,0.682 0.426,0.148 0.468,0.427 0.468,0.596 0,0.683 -0.62,0.77 -0.875,0.77 h -1.173 v -2.645 h 0.489 v 1.085 h 0.385 c 0.554,0 0.6,-0.255 0.6,-0.488 0,-0.451 0,-0.536 0.106,-0.597 h 0.49 C 0,-0.49 0.042,-0.407 0,0 m -0.898,0.874 h -0.577 v 0.833 h 0.494 c 0.342,0 0.574,-0.108 0.574,-0.429 0,-0.169 -0.083,-0.404 -0.491,-0.404"
             style="fill:#d91920;fill-opacity:1;fill-rule:nonzero;stroke:none"
             id="path30"
             inkscape:connector-curvature="0" /></g></g></g></g></svg>