<?xml version="1.0" encoding="iso-8859-1"?>
<!-- Uploaded to: SVG Repo, www.svgrepo.com, Generator: SVG Repo Mixer Tools -->
<svg fill="#000000" height="16px" width="16px" version="1.1" id="Layer_1" xmlns="http://www.w3.org/2000/svg" xmlns:xlink="http://www.w3.org/1999/xlink" 
	 viewBox="0 0 353.114 353.114" xml:space="preserve">
<g>
	<g>
		<path d="M312.336,140.356c-17.39,0-31.951,12.327-35.415,28.701H239.19c-1.445-13.035-6.611-24.958-14.407-34.694l31.584-31.584
			c4.462,2.614,9.553,4.012,14.86,4.013c0.001,0,0.001,0,0.001,0c7.874,0,15.277-3.066,20.848-8.635
			c11.491-11.494,11.491-30.196-0.001-41.69c-5.569-5.568-12.973-8.635-20.847-8.635s-15.277,3.066-20.845,8.635
			c-5.568,5.568-8.635,12.971-8.635,20.846c0,5.308,1.398,10.398,4.012,14.86l-31.585,31.585
			c-9.736-7.796-21.659-12.961-34.694-14.407V71.616c16.374-3.464,28.701-18.025,28.701-35.416c0-19.96-16.239-36.2-36.199-36.2
			c-19.962,0-36.201,16.24-36.201,36.201c0,17.39,12.326,31.951,28.699,35.415v37.733c-13.036,1.445-24.959,6.611-34.695,14.408
			l-26.703-26.703c3.807-5.824,5.854-12.626,5.854-19.745c0-9.669-3.767-18.76-10.604-25.598
			c-6.837-6.837-15.928-10.602-25.598-10.602c-9.669,0-18.76,3.765-25.597,10.602c-14.113,14.115-14.114,37.082-0.001,51.196
			c6.837,6.837,15.929,10.604,25.599,10.604h0.001c7.116,0,13.916-2.046,19.738-5.85l26.704,26.704
			c-7.796,9.737-12.961,21.66-14.405,34.695l-47.164-0.001c-3.259-11.278-13.67-19.553-25.985-19.553
			c-14.911,0.001-27.045,12.135-27.048,27.05c0.003,14.914,12.137,27.048,27.049,27.048c12.311,0,22.72-8.271,25.981-19.544
			l47.167,0.001c1.446,13.035,6.611,24.957,14.408,34.693L92.48,245.456c-5.824-3.806-12.627-5.854-19.746-5.854
			c-9.67,0-18.761,3.766-25.598,10.604c-14.113,14.115-14.112,37.08,0.001,51.194c6.837,6.837,15.929,10.604,25.599,10.604
			c0,0,0.001,0,0.002,0c9.667,0,18.758-3.766,25.593-10.603c12.296-12.295,13.877-31.305,4.751-45.333l26.708-26.707
			c9.736,7.795,21.658,12.961,34.693,14.406v37.731c-16.375,3.463-28.703,18.025-28.703,35.416c0,19.959,16.238,36.198,36.198,36.2
			c0,0,0.001,0,0.002,0c19.961-0.002,36.2-16.242,36.2-36.2c0-17.389-12.325-31.95-28.697-35.415v-37.733
			c13.034-1.446,24.957-6.611,34.693-14.407l26.706,26.706c-9.129,14.028-7.55,33.042,4.747,45.338
			c6.836,6.835,15.927,10.601,25.597,10.602h0.003c9.667,0,18.758-3.765,25.598-10.603c14.112-14.117,14.111-37.083-0.001-51.195
			c-6.838-6.838-15.929-10.604-25.599-10.604c-7.117,0-13.918,2.047-19.742,5.851l-26.702-26.703
			c7.796-9.736,12.962-21.659,14.407-34.694h37.731c3.464,16.374,18.025,28.701,35.415,28.701c19.961,0,36.201-16.24,36.201-36.201
			S332.297,140.356,312.336,140.356z M260.989,67.072c2.734-2.735,6.371-4.241,10.238-4.241c3.868,0,7.505,1.506,10.24,4.241
			c5.645,5.646,5.645,14.833,0.001,20.477c-2.736,2.736-6.372,4.242-10.24,4.242h-0.001c-3.868,0-7.504-1.506-10.238-4.241
			c-2.735-2.735-4.241-6.372-4.241-10.239C256.748,73.443,258.254,69.807,260.989,67.072z M87.727,92.301
			c-4.005,4.004-9.329,6.209-14.991,6.209c-5.663,0-10.988-2.206-14.992-6.21c-8.266-8.266-8.265-21.716,0.002-29.983
			c4.003-4.004,9.327-6.208,14.989-6.208c5.663,0,10.987,2.205,14.992,6.209c4.004,4.004,6.21,9.329,6.21,14.991
			C93.937,82.972,91.73,88.296,87.727,92.301z M31.625,188.604c-6.643,0-12.048-5.406-12.049-12.048
			c0.001-6.644,5.406-12.049,12.049-12.05c6.644,0,12.049,5.405,12.049,12.049S38.269,188.603,31.625,188.604z M87.724,290.794
			c-4.003,4.003-9.325,6.208-14.986,6.208c-0.001,0-0.001,0-0.001,0c-5.664,0-10.989-2.206-14.993-6.21
			c-8.266-8.266-8.266-21.715,0-29.982c4.004-4.004,9.327-6.209,14.99-6.209s10.987,2.206,14.992,6.209
			C95.991,269.077,95.99,282.527,87.724,290.794z M256.234,260.812c4.005-4.004,9.329-6.209,14.992-6.209
			c5.663,0,10.987,2.206,14.992,6.21c8.265,8.264,8.265,21.715,0,29.981c-4.005,4.004-9.328,6.209-14.99,6.209h-0.002
			c-5.664,0-10.988-2.206-14.991-6.208C247.969,282.529,247.97,269.079,256.234,260.812z M150.781,36.201
			c0-11.69,9.511-21.2,21.201-21.201c11.689,0,21.199,9.511,21.199,21.2c0,11.69-9.511,21.202-21.201,21.202
			C160.291,57.402,150.781,47.891,150.781,36.201z M193.18,316.912c0,11.688-9.511,21.199-21.2,21.2
			c-11.69-0.001-21.2-9.511-21.2-21.2c0-11.69,9.511-21.201,21.201-21.202C183.67,295.711,193.18,305.222,193.18,316.912z
			 M171.98,229.19c-29.021,0-52.633-23.611-52.633-52.633c0-29.022,23.611-52.634,52.633-52.634
			c29.022,0,52.635,23.611,52.635,52.634C224.615,205.579,201.003,229.19,171.98,229.19z M312.336,197.758
			c-11.69,0-21.201-9.511-21.201-21.201s9.511-21.201,21.201-21.201s21.201,9.511,21.201,21.201S324.026,197.758,312.336,197.758z"
			/>
	</g>
</g>
</svg>